<?xml version="1.0" encoding="UTF-8" standalone="no"?>
<!-- Created with Inkscape (http://www.inkscape.org/) -->

<svg
   xmlns:dc="http://purl.org/dc/elements/1.1/"
   xmlns:cc="http://creativecommons.org/ns#"
   xmlns:rdf="http://www.w3.org/1999/02/22-rdf-syntax-ns#"
   xmlns:svg="http://www.w3.org/2000/svg"
   xmlns="http://www.w3.org/2000/svg"
   xmlns:sodipodi="http://sodipodi.sourceforge.net/DTD/sodipodi-0.dtd"
   xmlns:inkscape="http://www.inkscape.org/namespaces/inkscape"
   width="400"
   height="400"
   id="svg2"
   version="1.1"
   inkscape:version="0.48.0 r9654"
   sodipodi:docname="New document 1">
  <defs
     id="defs4" />
  <sodipodi:namedview
     id="base"
     pagecolor="#ffffff"
     bordercolor="#666666"
     borderopacity="1.0"
     inkscape:pageopacity="0.0"
     inkscape:pageshadow="2"
     inkscape:zoom="2.4414062"
     inkscape:cx="26.735193"
     inkscape:cy="361.25824"
     inkscape:document-units="px"
     inkscape:current-layer="layer1"
     showgrid="false">
    <inkscape:grid
       type="xygrid"
       id="grid2985"
       empspacing="5"
       visible="true"
       enabled="true"
       snapvisiblegridlinesonly="true" />
  </sodipodi:namedview>
  <metadata
     id="metadata7">
    <rdf:RDF>
      <cc:Work
         rdf:about="">
        <dc:format>image/svg+xml</dc:format>
        <dc:type
           rdf:resource="http://purl.org/dc/dcmitype/StillImage" />
        <dc:title></dc:title>
      </cc:Work>
    </rdf:RDF>
  </metadata>
  <g
     inkscape:label="Layer 1"
     inkscape:groupmode="layer"
     id="layer1"
     transform="translate(0,-652.36217)">
    <rect
       style="color:#000000;fill:#000000;fill-opacity:0.25098041;fill-rule:nonzero;stroke:none;stroke-width:40;marker:none;visibility:visible;display:inline;overflow:visible;enable-background:accumulate"
       id="rect2987"
       width="40"
       height="40"
       x="0"
       y="0"
       transform="translate(0,652.36217)" />
    <path
       id="path3768"
       d="m 19.5,665.36217 c -0.277,0 -0.5,0.223 -0.5,0.5 l 0,7 c 0,0.277 0.223,0.5 0.5,0.5 l 1,0 c 0.277,0 0.5,-0.223 0.5,-0.5 l 0,-7 c 0,-0.277 -0.223,-0.5 -0.5,-0.5 l -1,0 z m -2.5,0.59375 c -2.933501,1.18599 -5,4.04767 -5,7.40625 0,4.41828 3.581722,8 8,8 4.418278,0 8,-3.58172 8,-8 0,-3.35858 -2.066499,-6.22026 -5,-7.40625 l 0,2.21875 c 1.793371,1.03744 3,2.96668 3,5.1875 0,3.31371 -2.686292,6 -6,6 -3.313708,0 -6,-2.68629 -6,-6 0,-2.22082 1.206629,-4.15006 3,-5.1875 l 0,-2.21875 z"
       style="color:#000000;fill:#000000;fill-opacity:0.12549020000000000;fill-rule:nonzero;stroke:#000000;stroke-width:2;stroke-miterlimit:4;stroke-opacity:0.12549020000000000;stroke-dasharray:none;marker:none;visibility:visible;display:inline;overflow:visible;enable-background:accumulate"
       inkscape:connector-curvature="0" />
    <path
       style="color:#000000;fill:#ffffff;fill-opacity:1;fill-rule:nonzero;stroke:none;stroke-width:40;marker:none;visibility:visible;display:inline;overflow:visible;enable-background:accumulate"
       d="M 19.5 12 C 19.223 12 19 12.223 19 12.5 L 19 19.5 C 19 19.777 19.223 20 19.5 20 L 20.5 20 C 20.777 20 21 19.777 21 19.5 L 21 12.5 C 21 12.223 20.777 12 20.5 12 L 19.5 12 z M 17 12.59375 C 14.066499 13.779739 12 16.641418 12 20 C 12 24.418278 15.581722 28 20 28 C 24.418278 28 28 24.418278 28 20 C 28 16.641418 25.933501 13.779739 23 12.59375 L 23 14.8125 C 24.793371 15.849937 26 17.779178 26 20 C 26 23.313708 23.313708 26 20 26 C 16.686292 26 14 23.313708 14 20 C 14 17.779178 15.206629 15.849937 17 14.8125 L 17 12.59375 z "
       transform="translate(0,652.36217)"
       id="path3757" />
  </g>
</svg>
