<?xml version="1.0" encoding="UTF-8" standalone="no"?>
<!-- Created with Inkscape (http://www.inkscape.org/) -->

<svg
   xmlns:dc="http://purl.org/dc/elements/1.1/"
   xmlns:cc="http://creativecommons.org/ns#"
   xmlns:rdf="http://www.w3.org/1999/02/22-rdf-syntax-ns#"
   xmlns:svg="http://www.w3.org/2000/svg"
   xmlns="http://www.w3.org/2000/svg"
   xmlns:sodipodi="http://sodipodi.sourceforge.net/DTD/sodipodi-0.dtd"
   xmlns:inkscape="http://www.inkscape.org/namespaces/inkscape"
   width="400"
   height="400"
   id="svg2"
   version="1.1"
   inkscape:version="0.48.0 r9654"
   sodipodi:docname="sprite.svg"
   inkscape:export-filename="/home/devseed/mb/modules/bones-admin/images/sprite.png"
   inkscape:export-xdpi="90"
   inkscape:export-ydpi="90"
   enable-background="new">
  <defs
     id="defs4">
    <filter
       inkscape:collect="always"
       id="filter3800">
      <feBlend
         inkscape:collect="always"
         mode="multiply"
         in2="BackgroundImage"
         id="feBlend3802" />
    </filter>
  </defs>
  <sodipodi:namedview
     id="base"
     pagecolor="#ffffff"
     bordercolor="#666666"
     borderopacity="1.0"
     inkscape:pageopacity="0.0"
     inkscape:pageshadow="2"
     inkscape:zoom="1"
     inkscape:cx="72.561908"
     inkscape:cy="382.103"
     inkscape:document-units="px"
     inkscape:current-layer="layer1"
     showgrid="false">
    <inkscape:grid
       type="xygrid"
       id="grid2985"
       empspacing="5"
       visible="true"
       enabled="true"
       snapvisiblegridlinesonly="true" />
  </sodipodi:namedview>
  <metadata
     id="metadata7">
    <rdf:RDF>
      <cc:Work
         rdf:about="">
        <dc:format>image/svg+xml</dc:format>
        <dc:type
           rdf:resource="http://purl.org/dc/dcmitype/StillImage" />
        <dc:title></dc:title>
      </cc:Work>
    </rdf:RDF>
  </metadata>
  <g
     inkscape:groupmode="layer"
     id="layer2"
     inkscape:label="Ground"
     style="display:none"
     sodipodi:insensitive="true">
    <rect
       style="color:#000000;fill:#000000;fill-opacity:0.1254902;fill-rule:nonzero;stroke:none;stroke-width:2;marker:none;visibility:visible;display:inline;overflow:visible;enable-background:accumulate"
       id="rect3790"
       width="400"
       height="400"
       x="0"
       y="0" />
  </g>
  <g
     inkscape:label="Layer 1"
     inkscape:groupmode="layer"
     id="layer1"
     transform="translate(0,-652.36217)"
     style="filter:url(#filter3800)">
    <path
       inkscape:connector-curvature="0"
       id="path3781"
       d="m 66.5,658.36217 -1.5,1.5 3.5,3.5 -3.5,3.5 1.5,1.5 3.5,-3.5 3.5,3.5 1.5,-1.5 -3.5,-3.5 3.5,-3.5 -1.5,-1.5 -3.5,3.5 z"
       style="color:#000000;fill:#000000;fill-opacity:0.1254902;fill-rule:nonzero;stroke:#000000;stroke-width:2;stroke-linecap:butt;stroke-linejoin:bevel;stroke-miterlimit:4;stroke-opacity:0.1254902;stroke-dasharray:none;stroke-dashoffset:0;marker:none;visibility:visible;display:inline;overflow:visible;enable-background:accumulate"
       sodipodi:nodetypes="ccccccccccccc" />
    <path
       id="path3818"
       d="m 25,655.36217 -1,1 0,13 1,1 10,0 1,-1 0,-9.5 -4,0 0,-4.5 -7,0 z m 8,0 0,3 3,0 -3,-3 z m -4.0625,5.03125 2.0625,0 2,6 -1.59375,0 -0.4375,-1.15625 -2,0 -0.40625,1.15625 -1.5625,0 1.9375,-6 z m 1.03125,1.15625 -0.6875,2.34375 1.375,0 -0.6875,-2.34375 z"
       style="color:#000000;fill:#000000;fill-opacity:0.1254902;fill-rule:nonzero;stroke:#000000;stroke-width:2;stroke-linecap:butt;stroke-linejoin:bevel;stroke-miterlimit:4;stroke-opacity:0.1254902;stroke-dasharray:none;stroke-dashoffset:0;marker:none;visibility:visible;display:inline;overflow:visible;enable-background:accumulate"
       inkscape:connector-curvature="0" />
    <path
       sodipodi:nodetypes="ssccssccssccss"
       inkscape:connector-curvature="0"
       id="path3770"
       d="m 10,655.36217 c -1.9329965,0 -3.5,2.01472 -3.5,4.5 0,1.71393 0.7471524,3.17762 1.84375,3.9375 L 8,664.86217 c 0,0 0,0.5 -1,1.5 -1,1 -2,0.5 -3,1.5 -1,1 -1,2.5 -1,2.5 l 14,0 c 0,0 0,-1.5 -1,-2.5 -1,-1 -2,-0.5 -3,-1.5 -1,-1 -1,-1.5 -1,-1.5 l -0.34375,-1.0625 c 1.096598,-0.75988 1.84375,-2.22357 1.84375,-3.9375 0,-2.48528 -1.567003,-4.5 -3.5,-4.5 z"
       style="color:#000000;fill:#000000;fill-opacity:0.1254902;fill-rule:nonzero;stroke:#000000;stroke-width:2;stroke-linecap:butt;stroke-linejoin:miter;stroke-miterlimit:4;stroke-opacity:0.1254902;stroke-dasharray:none;stroke-dashoffset:0;marker:none;visibility:visible;display:inline;overflow:visible;enable-background:accumulate" />
    <rect
       style="color:#000000;fill:#000000;fill-opacity:0.50196078;fill-rule:nonzero;stroke:none;stroke-width:40;marker:none;visibility:visible;display:inline;overflow:visible;enable-background:accumulate"
       id="rect2987"
       width="40"
       height="40"
       x="360"
       y="652.36218" />
    <path
       id="path3768"
       d="m 379.5,665.36216 c -0.277,0 -0.5,0.223 -0.5,0.5 l 0,7 c 0,0.277 0.223,0.5 0.5,0.5 l 1,0 c 0.277,0 0.5,-0.223 0.5,-0.5 l 0,-7 c 0,-0.277 -0.223,-0.5 -0.5,-0.5 l -1,0 z m -2.5,0.59375 c -2.9335,1.18599 -5,4.04767 -5,7.40625 0,4.41828 3.58172,8 8,8 4.41828,0 8,-3.58172 8,-8 0,-3.35858 -2.0665,-6.22026 -5,-7.40625 l 0,2.21875 c 1.79337,1.03744 3,2.96668 3,5.1875 0,3.31371 -2.68629,6 -6,6 -3.31371,0 -6,-2.68629 -6,-6 0,-2.22082 1.20663,-4.15006 3,-5.1875 l 0,-2.21875 z"
       style="color:#000000;fill:#000000;fill-opacity:0.1254902;fill-rule:nonzero;stroke:#000000;stroke-width:2;stroke-miterlimit:4;stroke-opacity:0.1254902;stroke-dasharray:none;marker:none;visibility:visible;display:inline;overflow:visible;enable-background:accumulate"
       inkscape:connector-curvature="0" />
    <path
       style="color:#000000;fill:#ffffff;fill-opacity:1;fill-rule:nonzero;stroke:none;stroke-width:40;marker:none;visibility:visible;display:inline;overflow:visible;enable-background:accumulate"
       d="m 379.5,664.36216 c -0.277,0 -0.5,0.223 -0.5,0.5 l 0,7 c 0,0.277 0.223,0.5 0.5,0.5 l 1,0 c 0.277,0 0.5,-0.223 0.5,-0.5 l 0,-7 c 0,-0.277 -0.223,-0.5 -0.5,-0.5 l -1,0 z m -2.5,0.59375 c -2.9335,1.18599 -5,4.04767 -5,7.40625 0,4.41828 3.58172,8 8,8 4.41828,0 8,-3.58172 8,-8 0,-3.35858 -2.0665,-6.22026 -5,-7.40625 l 0,2.21875 c 1.79337,1.03744 3,2.96668 3,5.1875 0,3.31371 -2.68629,6 -6,6 -3.31371,0 -6,-2.68629 -6,-6 0,-2.22082 1.20663,-4.15006 3,-5.1875 l 0,-2.21875 z"
       id="path3757"
       inkscape:connector-curvature="0" />
    <path
       style="color:#000000;fill:#ffffff;fill-opacity:1;fill-rule:nonzero;stroke:none;stroke-width:2;marker:none;visibility:visible;display:inline;overflow:visible;enable-background:accumulate"
       d="m 10,654.36217 c -1.9329965,0 -3.5,2.01472 -3.5,4.5 0,1.71393 0.7471524,3.17762 1.84375,3.9375 L 8,663.86217 c 0,0 0,0.5 -1,1.5 -1,1 -2,0.5 -3,1.5 -1,1 -1,2.5 -1,2.5 l 14,0 c 0,0 0,-1.5 -1,-2.5 -1,-1 -2,-0.5 -3,-1.5 -1,-1 -1,-1.5 -1,-1.5 l -0.34375,-1.0625 c 1.096598,-0.75988 1.84375,-2.22357 1.84375,-3.9375 0,-2.48528 -1.567003,-4.5 -3.5,-4.5 z"
       id="path3754"
       inkscape:connector-curvature="0"
       sodipodi:nodetypes="ssccssccssccss" />
    <path
       style="color:#000000;fill:#ffffff;fill-opacity:1;fill-rule:nonzero;stroke:none;stroke-width:2;marker:none;visibility:visible;display:inline;overflow:visible;enable-background:accumulate"
       d="m 25,654.36217 -1,1 0,13 1,1 10,0 1,-1 0,-9.5 -4,0 0,-4.5 -7,0 z m 8,0 0,3 3,0 -3,-3 z m -4.0625,5.03125 2.0625,0 2,6 -1.59375,0 -0.4375,-1.15625 -2,0 -0.40625,1.15625 -1.5625,0 1.9375,-6 z m 1.03125,1.15625 -0.6875,2.34375 1.375,0 -0.6875,-2.34375 z"
       id="rect3792"
       inkscape:connector-curvature="0" />
    <path
       style="color:#000000;fill:#000000;fill-opacity:0.1254902;fill-rule:nonzero;stroke:#000000;stroke-width:2;stroke-linecap:butt;stroke-linejoin:bevel;stroke-miterlimit:4;stroke-opacity:0.1254902;stroke-dasharray:none;stroke-dashoffset:0;marker:none;visibility:visible;display:inline;overflow:visible;enable-background:accumulate"
       d="m 47,661.36217 6,0 -3,5 z"
       id="path3000"
       inkscape:connector-curvature="0"
       sodipodi:nodetypes="cccc" />
    <path
       transform="translate(0,652.36217)"
       inkscape:connector-curvature="0"
       id="path3002"
       d="m 47,8 6,0 -3,5 z"
       style="color:#000000;fill:#ffffff;fill-opacity:1;fill-rule:nonzero;stroke:none;stroke-width:2;marker:none;visibility:visible;display:inline;overflow:visible;enable-background:accumulate"
       sodipodi:nodetypes="cccc" />
    <path
       style="color:#000000;fill:#ffffff;fill-opacity:1;fill-rule:nonzero;stroke:none;stroke-width:2;marker:none;visibility:visible;display:inline;overflow:visible;enable-background:accumulate"
       d="m 66.5,657.36217 -1.5,1.5 3.5,3.5 -3.5,3.5 1.5,1.5 3.5,-3.5 3.5,3.5 1.5,-1.5 -3.5,-3.5 3.5,-3.5 -1.5,-1.5 -3.5,3.5 z"
       id="path3776"
       inkscape:connector-curvature="0"
       sodipodi:nodetypes="ccccccccccccc" />
  </g>
</svg>
